<?xml version="1.0" standalone="no"?>
<!DOCTYPE svg PUBLIC "-//W3C//DTD SVG 20010904//EN"
 "http://www.w3.org/TR/2001/REC-SVG-20010904/DTD/svg10.dtd">
<svg version="1.0" xmlns="http://www.w3.org/2000/svg"
 width="80.000000pt" height="80.000000pt" viewBox="0 0 80.000000 80.000000"
 preserveAspectRatio="xMidYMid meet">
<metadata>
Created by potrace 1.14, written by Peter Selinger 2001-2017
</metadata>
<g transform="translate(0.000000,80.000000) scale(0.100000,-0.100000)"
fill="#000000" stroke="none">
<path d="M328 707 c-21 -23 -55 -61 -76 -84 -21 -23 -58 -66 -83 -94 -24 -29
-55 -63 -69 -76 -24 -22 -25 -28 -26 -160 -1 -107 2 -140 13 -151 13 -13 16
-13 30 1 12 12 16 38 17 101 1 47 -3 86 -8 86 -5 0 -3 7 4 15 10 12 10 15 -1
15 -12 0 -12 2 0 9 7 5 11 13 8 18 -4 6 9 27 29 48 19 21 58 65 87 97 29 33
69 78 89 101 l37 41 21 -19 c40 -36 42 -51 14 -82 -14 -15 -62 -68 -107 -116
l-82 -88 0 -110 c-1 -66 4 -113 10 -117 18 -13 423 -10 440 2 13 9 16 35 16
144 -1 124 -2 134 -23 156 -20 19 -52 56 -145 162 -96 111 -129 144 -142 144
-9 0 -33 -19 -53 -43z"/>
</g>
</svg>
